<svg width="22" height="22" viewBox="0 0 22 22" fill="none" xmlns="http://www.w3.org/2000/svg">
<path d="M17.2126 13.6854L17.1988 13.6992C16.8224 14.9305 16.1163 15.8996 15.0778 16.6036C14.0392 17.3076 12.7314 17.661 11.1489 17.661C9.0141 17.661 7.29968 17.0204 6.00562 15.7394C4.71156 14.4584 4.06316 12.835 4.06316 10.8693C4.06316 8.90364 4.70057 7.23887 5.9754 5.93852C7.18978 4.69891 8.72562 4.05012 10.5802 3.99214H18.7676V0H10.5802C7.62938 0.0662596 5.14566 1.11537 3.12902 3.15285C1.04094 5.2566 -0.000350952 7.82968 -0.000350952 10.8666C-0.000350952 13.9035 1.05193 16.4434 3.15649 18.5389C5.26106 20.6344 7.91512 21.6807 11.1187 21.6807C14.1217 21.6807 16.5751 20.7558 18.4709 18.9088C19.9216 17.4981 20.8145 15.7532 21.1579 13.6826H17.2126V13.6854Z" fill="#44A40C"/>
<path d="M15.2314 9.7358L10.0468 6.9076C9.44134 6.57747 8.68181 6.99078 8.68181 7.65104V13.3074C8.68181 13.9703 9.44134 14.3836 10.0468 14.0509L15.2314 11.2227C15.8368 10.8926 15.8368 10.0659 15.2314 9.7332V9.7358Z" fill="#44A40C"/>
</svg>
