<svg width="924" height="200" viewBox="0 0 924 200" fill="none" xmlns="http://www.w3.org/2000/svg">
<g clip-path="url(#clip0_16380_58336)">
<path d="M157.407 125.844L157.282 125.969C153.86 137.163 147.441 145.973 138 152.373C128.558 158.773 116.669 161.985 102.283 161.985C82.8754 161.985 67.2897 156.162 55.5255 144.517C43.7614 132.871 37.8668 118.113 37.8668 100.243C37.8668 82.3733 43.6615 67.239 55.2508 55.4177C66.2906 44.1485 80.2528 38.2504 97.1123 37.7234H171.544V1.43115H97.1123C70.2869 2.03351 47.7077 11.5709 29.3746 30.0935C10.3921 49.2184 0.925781 72.6101 0.925781 100.218C0.925781 127.826 10.492 150.917 29.6244 169.967C48.7568 189.016 72.8846 198.528 102.008 198.528C129.308 198.528 151.612 190.121 168.846 173.33C182.034 160.504 190.152 144.642 193.274 125.819H157.407V125.844Z" fill="#44A40C"/>
<path d="M139.396 89.9348L92.2631 64.2239C86.7593 61.2227 79.8545 64.9801 79.8545 70.9824V122.404C79.8545 128.43 86.7593 132.188 92.2631 129.163L139.396 103.452C144.9 100.451 144.9 92.936 139.396 89.9112V89.9348Z" fill="#44A40C"/>
<path d="M305.423 40.3394H284.69C260.727 40.3394 252.624 47.6828 252.624 68.1464V197.047H209.274V59.5057C209.274 14.4172 233.556 2.9126 287.114 2.9126H305.448V40.315L305.423 40.3394Z" fill="#44A40C"/>
<path d="M364.178 117.382C367.213 131.762 374.126 142.794 384.989 150.478C395.828 158.186 409.076 162.015 424.708 162.015C446.386 162.015 462.669 154.211 473.508 138.555L507.181 158.234C488.514 185.717 460.91 199.47 424.347 199.47C393.564 199.47 368.73 190.076 349.822 171.289C330.914 152.501 321.448 128.727 321.448 99.9918C321.448 71.2563 330.769 48.1088 349.437 29.0562C368.104 10.0276 392.046 0.489258 421.312 0.489258C449.06 0.489258 471.822 10.1962 489.598 29.6102C507.374 49.0242 516.262 72.6051 516.262 100.353C516.262 104.641 515.756 110.325 514.744 117.382H364.178ZM363.816 84.0945H475.025C472.255 68.7271 465.872 57.1173 455.924 49.2891C445.952 41.485 434.294 37.5588 420.926 37.5588C405.8 37.5588 393.178 41.7258 383.086 50.0358C372.994 58.3698 366.562 69.7147 363.792 84.0704L363.816 84.0945Z" fill="#44A40C"/>
<path d="M632.135 199.492C604.384 199.492 580.801 189.904 561.385 170.729C541.97 151.554 532.262 127.971 532.262 99.9799C532.262 71.9885 541.97 48.4054 561.385 29.2305C580.801 10.0557 604.384 0.468262 632.135 0.468262C659.885 0.468262 683.782 10.0557 703.077 29.2305C722.372 48.4054 732.008 71.9885 732.008 99.9799C732.008 127.971 722.372 151.554 703.077 170.729C683.782 189.904 660.126 199.492 632.135 199.492ZM590.148 142.738C601.494 154.084 615.489 159.769 632.135 159.769C648.78 159.769 662.776 154.084 674.122 142.738C685.468 131.392 691.153 117.131 691.153 99.9799C691.153 82.8286 685.468 68.5679 674.122 57.222C662.776 45.876 648.78 40.191 632.135 40.191C615.489 40.191 601.494 45.876 590.148 57.222C578.802 68.5679 573.117 82.8286 573.117 99.9799C573.117 117.131 578.802 131.392 590.148 142.738Z" fill="#44A40C"/>
<path d="M849.223 1.26416C871.274 1.26416 889.111 8.32052 902.709 22.4333C916.307 36.546 923.094 55.902 923.094 80.5502V198.695H881.54V84.789C881.54 70.4312 877.693 59.3812 870 51.6878C862.306 43.9944 851.771 40.1477 838.442 40.1477C823.815 40.1477 812.005 44.7049 803.038 53.8194C794.046 62.9338 789.562 76.8506 789.562 95.5695V198.695H748.008V6.26242H789.562V30.8862C802.131 11.1382 822.002 1.26416 849.198 1.26416H849.223Z" fill="#44A40C"/>
</g>
<defs>
<clipPath id="clip0_16380_58336">
<rect width="922.168" height="199.023" fill="white" transform="translate(0.925781 0.468262)"/>
</clipPath>
</defs>
</svg>
