<svg width="15" height="15" viewBox="0 0 15 15" fill="none" xmlns="http://www.w3.org/2000/svg">
<path d="M3.86152 11.9999C3.69861 11.9999 3.56214 11.9447 3.45212 11.8343C3.34211 11.7239 3.28691 11.5874 3.28652 11.4249C3.28614 11.2624 3.34134 11.1259 3.45212 11.0155C3.56291 10.9051 3.69937 10.8499 3.86152 10.8499H10.7615C10.9244 10.8499 11.0611 10.9051 11.1715 11.0155C11.2819 11.1259 11.3369 11.2624 11.3365 11.4249C11.3361 11.5874 11.2809 11.7241 11.1709 11.8349C11.0609 11.9457 10.9244 12.0007 10.7615 11.9999H3.86152ZM4.26402 9.9874C3.98611 9.9874 3.73943 9.89636 3.524 9.71428C3.30857 9.5322 3.1767 9.3022 3.1284 9.02428L2.5534 5.37303C2.53423 5.37303 2.51277 5.37552 2.489 5.3805C2.46523 5.38549 2.44357 5.38779 2.42402 5.3874C2.18444 5.3874 1.98089 5.30365 1.81337 5.13613C1.64586 4.96861 1.56191 4.76487 1.56152 4.5249C1.56114 4.28494 1.64509 4.08139 1.81337 3.91425C1.98166 3.74712 2.18521 3.66317 2.42402 3.6624C2.66284 3.66164 2.86658 3.74559 3.03525 3.91425C3.20392 4.08292 3.28767 4.28647 3.28652 4.5249C3.28652 4.59199 3.27924 4.65428 3.26467 4.71178C3.25011 4.76928 3.23343 4.82199 3.21465 4.8699L5.01152 5.6749L6.8084 3.21678C6.70298 3.14011 6.61673 3.03949 6.54965 2.9149C6.48257 2.79032 6.44902 2.65615 6.44902 2.5124C6.44902 2.27282 6.53297 2.06908 6.70087 1.90118C6.86877 1.73328 7.07232 1.64952 7.31152 1.6499C7.55072 1.65029 7.75447 1.73424 7.92275 1.90175C8.09103 2.06927 8.17479 2.27282 8.17402 2.5124C8.17402 2.65615 8.14048 2.79032 8.0734 2.9149C8.00632 3.03949 7.92007 3.14011 7.81465 3.21678L9.61152 5.6749L11.4084 4.8699C11.3892 4.82199 11.3724 4.76928 11.3578 4.71178C11.3432 4.65428 11.3361 4.59199 11.3365 4.5249C11.3365 4.28532 11.4205 4.08158 11.5884 3.91368C11.7563 3.74578 11.9598 3.66202 12.199 3.6624C12.4382 3.66279 12.642 3.74674 12.8102 3.91425C12.9785 4.08177 13.0623 4.28532 13.0615 4.5249C13.0608 4.76449 12.977 4.96823 12.8102 5.13613C12.6435 5.30403 12.4398 5.38779 12.199 5.3874C12.1799 5.3874 12.1584 5.3851 12.1346 5.3805C12.1109 5.3759 12.0892 5.37341 12.0696 5.37303L11.4946 9.02428C11.4467 9.3022 11.3151 9.5322 11.0996 9.71428C10.8842 9.89636 10.6373 9.9874 10.359 9.9874H4.26402Z" fill="#44A40C"/>
</svg>
