<svg width="24" height="24" viewBox="0 0 24 24" fill="none" xmlns="http://www.w3.org/2000/svg">
<path d="M13.4041 3.00154C8.31407 2.86154 4.14407 6.95154 4.14407 12.0015H2.35407C1.90407 12.0015 1.68407 12.5415 2.00407 12.8515L4.79407 15.6515C4.99407 15.8515 5.30407 15.8515 5.50407 15.6515L8.29407 12.8515C8.60407 12.5415 8.38407 12.0015 7.93407 12.0015H6.14407C6.14407 8.10154 9.32407 4.95154 13.2441 5.00154C16.9641 5.05154 20.0941 8.18154 20.1441 11.9015C20.1941 15.8115 17.0441 19.0015 13.1441 19.0015C11.5341 19.0015 10.0441 18.4515 8.86407 17.5215C8.46407 17.2115 7.90407 17.2415 7.54407 17.6015C7.12407 18.0215 7.15407 18.7315 7.62407 19.0915C9.14407 20.2915 11.0541 21.0015 13.1441 21.0015C18.1941 21.0015 22.2841 16.8315 22.1441 11.7415C22.0141 7.05154 18.0941 3.13154 13.4041 3.00154ZM12.8941 8.00154C12.4841 8.00154 12.1441 8.34154 12.1441 8.75154V12.4315C12.1441 12.7815 12.3341 13.1115 12.6341 13.2915L15.7541 15.1415C16.1141 15.3515 16.5741 15.2315 16.7841 14.8815C16.9941 14.5215 16.8741 14.0615 16.5241 13.8515L13.6441 12.1415V8.74154C13.6441 8.34154 13.3041 8.00154 12.8941 8.00154Z" fill="#44A40C"/>
</svg>
