<svg width="24" height="24" viewBox="0 0 24 24" fill="none" xmlns="http://www.w3.org/2000/svg">
<path d="M16.917 4.5127C18.4833 4.94742 19.9753 5.7962 21.2041 7.07227C24.9313 10.9431 24.9313 17.2268 21.2041 21.0977C17.477 24.968 11.4272 24.9682 7.7002 21.0977C6.47133 19.8214 5.65398 18.2714 5.23535 16.6445C8.42226 17.5281 11.9539 16.6794 14.4521 14.085C16.9504 11.4904 17.7678 7.82252 16.917 4.5127ZM10.5361 8.87891L13.3789 9.93066L10.5361 10.9824L9.48438 13.8262L8.43262 10.9824L5.58887 9.93066L8.43262 8.87891L9.48438 6.03516L10.5361 8.87891ZM4.94727 2.84277L7.79004 3.89551L4.94727 4.94727L3.89551 7.79004L2.84277 4.94727L0 3.89551L2.84277 2.84277L3.89551 0L4.94727 2.84277Z" fill="#FFC400"/>
</svg>
