<svg width="24" height="24" viewBox="0 0 24 24" fill="none" xmlns="http://www.w3.org/2000/svg">
<path d="M16.917 4.5127C18.4835 4.94746 19.9762 5.79602 21.2051 7.07227C24.9322 10.9431 24.9323 17.2269 21.2051 21.0977C17.4779 24.9684 11.4274 24.9682 7.7002 21.0977C6.47132 19.8214 5.654 18.2714 5.23535 16.6445C8.42231 17.5281 11.9538 16.6794 14.4521 14.085C16.9505 11.4904 17.7678 7.82252 16.917 4.5127ZM19.125 7.81543C18.9562 10.6695 17.7946 13.4187 15.8027 15.4873C13.8109 17.5559 11.1641 18.7622 8.41602 18.9375C8.60502 19.2039 8.82129 19.456 9.05078 19.6943C12.0285 22.7868 16.8768 22.7868 19.8545 19.6943C22.8319 16.6019 22.8321 11.5669 19.8545 8.47461C19.6249 8.23621 19.3816 8.01176 19.125 7.81543ZM10.5342 8.87207L13.3721 9.92188L10.5342 10.9717L9.48438 13.8105L8.43359 10.9717L5.5957 9.92188L8.43359 8.87207L9.48438 6.0332L10.5342 8.87207ZM4.93848 2.83789L7.77637 3.88867L4.93848 4.93848L3.88867 7.77637L2.83789 4.93848L0 3.88867L2.83789 2.83789L3.88867 0L4.93848 2.83789Z" fill="white"/>
</svg>
