<svg width="62" height="7" viewBox="0 0 62 7" fill="none" xmlns="http://www.w3.org/2000/svg">
<path d="M0 3.5C0 1.84315 1.34315 0.5 3 0.5H9C10.6569 0.5 12 1.84315 12 3.5C12 5.15685 10.6569 6.5 9 6.5H3C1.34315 6.5 0 5.15685 0 3.5Z" fill="#F5F5F5" fill-opacity="0.6"/>
<path d="M16 3.5C16 1.84315 17.3431 0.5 19 0.5C20.6569 0.5 22 1.84315 22 3.5C22 5.15685 20.6569 6.5 19 6.5C17.3431 6.5 16 5.15685 16 3.5Z" fill="#F5F5F5" fill-opacity="0.2"/>
<path d="M26 3.5C26 1.84315 27.3431 0.5 29 0.5C30.6569 0.5 32 1.84315 32 3.5C32 5.15685 30.6569 6.5 29 6.5C27.3431 6.5 26 5.15685 26 3.5Z" fill="#F5F5F5" fill-opacity="0.2"/>
<path d="M36 3.5C36 1.84315 37.3431 0.5 39 0.5C40.6569 0.5 42 1.84315 42 3.5C42 5.15685 40.6569 6.5 39 6.5C37.3431 6.5 36 5.15685 36 3.5Z" fill="#F5F5F5" fill-opacity="0.2"/>
<path d="M46 3.5C46 1.84315 47.3431 0.5 49 0.5C50.6569 0.5 52 1.84315 52 3.5C52 5.15685 50.6569 6.5 49 6.5C47.3431 6.5 46 5.15685 46 3.5Z" fill="#F5F5F5" fill-opacity="0.2"/>
<path d="M56 3.5C56 1.84315 57.3431 0.5 59 0.5C60.6569 0.5 62 1.84315 62 3.5C62 5.15685 60.6569 6.5 59 6.5C57.3431 6.5 56 5.15685 56 3.5Z" fill="#F5F5F5" fill-opacity="0.2"/>
</svg>
