<svg width="64" height="64" viewBox="0 0 64 64" fill="none" xmlns="http://www.w3.org/2000/svg">
<path d="M0 32C0 14.3269 14.3269 0 32 0C49.6731 0 64 14.3269 64 32C64 49.6731 49.6731 64 32 64C14.3269 64 0 49.6731 0 32Z" fill="#121212" fill-opacity="0.4"/>
<path d="M32 0.470703C49.4132 0.470703 63.5293 14.5868 63.5293 32C63.5293 49.4132 49.4132 63.5293 32 63.5293C14.5868 63.5293 0.470703 49.4132 0.470703 32C0.470703 14.5868 14.5868 0.470703 32 0.470703Z" stroke="#F5F5F5" stroke-opacity="0.4" stroke-width="0.941176"/>
<path d="M24.2441 23.4677V40.5313C24.2441 41.8324 25.6771 42.623 26.7806 41.9148L40.1877 33.383C41.2088 32.7407 41.2088 31.2583 40.1877 30.5995L26.7806 22.0842C25.6771 21.376 24.2441 22.1666 24.2441 23.4677Z" fill="#F5F5F5"/>
</svg>
