<svg width="59" height="26" viewBox="0 0 59 26" fill="none" xmlns="http://www.w3.org/2000/svg">
<rect x="1.32324" y="0.5" width="57.1765" height="25" rx="3.5" stroke="#44A40C"/>
<path d="M12.8615 18.9999C12.6986 18.9999 12.5621 18.9447 12.4521 18.8343C12.3421 18.7239 12.2869 18.5874 12.2865 18.4249C12.2861 18.2624 12.3413 18.1259 12.4521 18.0155C12.5629 17.9051 12.6994 17.8499 12.8615 17.8499H19.7615C19.9244 17.8499 20.0611 17.9051 20.1715 18.0155C20.2819 18.1259 20.3369 18.2624 20.3365 18.4249C20.3361 18.5874 20.2809 18.7241 20.1709 18.8349C20.0609 18.9457 19.9244 19.0007 19.7615 18.9999H12.8615ZM13.264 16.9874C12.9861 16.9874 12.7394 16.8964 12.524 16.7143C12.3086 16.5322 12.1767 16.3022 12.1284 16.0243L11.5534 12.373C11.5342 12.373 11.5128 12.3755 11.489 12.3805C11.4652 12.3855 11.4436 12.3878 11.424 12.3874C11.1844 12.3874 10.9809 12.3036 10.8134 12.1361C10.6459 11.9686 10.5619 11.7649 10.5615 11.5249C10.5611 11.2849 10.6451 11.0814 10.8134 10.9143C10.9817 10.7471 11.1852 10.6632 11.424 10.6624C11.6628 10.6616 11.8666 10.7456 12.0352 10.9143C12.2039 11.0829 12.2877 11.2865 12.2865 11.5249C12.2865 11.592 12.2792 11.6543 12.2647 11.7118C12.2501 11.7693 12.2334 11.822 12.2146 11.8699L14.0115 12.6749L15.8084 10.2168C15.703 10.1401 15.6167 10.0395 15.5496 9.9149C15.4826 9.79032 15.449 9.65615 15.449 9.5124C15.449 9.27282 15.533 9.06908 15.7009 8.90118C15.8688 8.73328 16.0723 8.64952 16.3115 8.6499C16.5507 8.65029 16.7545 8.73424 16.9227 8.90175C17.091 9.06927 17.1748 9.27282 17.174 9.5124C17.174 9.65615 17.1405 9.79032 17.0734 9.9149C17.0063 10.0395 16.9201 10.1401 16.8146 10.2168L18.6115 12.6749L20.4084 11.8699C20.3892 11.822 20.3724 11.7693 20.3578 11.7118C20.3432 11.6543 20.3361 11.592 20.3365 11.5249C20.3365 11.2853 20.4205 11.0816 20.5884 10.9137C20.7563 10.7458 20.9598 10.662 21.199 10.6624C21.4382 10.6628 21.642 10.7467 21.8102 10.9143C21.9785 11.0818 22.0623 11.2853 22.0615 11.5249C22.0608 11.7645 21.977 11.9682 21.8102 12.1361C21.6435 12.304 21.4398 12.3878 21.199 12.3874C21.1799 12.3874 21.1584 12.3851 21.1346 12.3805C21.1109 12.3759 21.0892 12.3734 21.0696 12.373L20.4946 16.0243C20.4467 16.3022 20.3151 16.5322 20.0996 16.7143C19.8842 16.8964 19.6373 16.9874 19.359 16.9874H13.264Z" fill="#44A40C"/>
<path d="M30.5056 19L27.3416 8.626H29.5256L30.8836 13.68C31.0516 14.2493 31.1963 14.8047 31.3176 15.346C31.4483 15.878 31.593 16.438 31.7516 17.026H31.8216C31.9896 16.438 32.139 15.878 32.2696 15.346C32.4003 14.8047 32.545 14.2493 32.7036 13.68L34.0476 8.626H36.1476L32.9836 19H30.5056ZM37.3536 19V8.626H39.4256V19H37.3536ZM41.9747 19V8.626H45.3767C46.142 8.626 46.828 8.72867 47.4347 8.934C48.0507 9.13933 48.536 9.48 48.8907 9.956C49.2547 10.4227 49.4367 11.0667 49.4367 11.888C49.4367 12.672 49.2547 13.3207 48.8907 13.834C48.536 14.338 48.0554 14.7113 47.4487 14.954C46.8514 15.1967 46.1794 15.318 45.4327 15.318H44.0467V19H41.9747ZM44.0467 13.68H45.2927C46.002 13.68 46.5294 13.5307 46.8747 13.232C47.2294 12.9333 47.4067 12.4853 47.4067 11.888C47.4067 11.2907 47.22 10.8753 46.8467 10.642C46.4827 10.3993 45.9414 10.278 45.2227 10.278H44.0467V13.68Z" fill="#44A40C"/>
</svg>
