<svg width="343" height="191" viewBox="0 0 343 191" fill="none" xmlns="http://www.w3.org/2000/svg">
<g clip-path="url(#clip0_18511_12089)">
<path d="M0 8C0 3.58173 3.58172 0 8 0H335C339.418 0 343 3.58172 343 8V183C343 187.418 339.418 191 335 191H7.99999C3.58172 191 0 187.418 0 183V8Z" fill="#121212"/>
<mask id="mask0_18511_12089" style="mask-type:alpha" maskUnits="userSpaceOnUse" x="0" y="0" width="343" height="192">
<path d="M0 8C0 3.58173 3.58172 0 8 0H335C339.418 0 343 3.58172 343 8V183.676C343 188.095 339.418 191.676 335 191.676H7.99999C3.58172 191.676 0 188.095 0 183.676V8Z" fill="#121212"/>
</mask>
<g mask="url(#mask0_18511_12089)">
<g clip-path="url(#clip1_18511_12089)">
<path d="M93.7473 101.957L93.7178 101.987C92.9117 104.624 91.3995 106.699 89.1752 108.207C86.951 109.715 84.1501 110.472 80.7608 110.472C76.1887 110.472 72.517 109.1 69.7455 106.356C66.974 103.613 65.5853 100.136 65.5853 95.9262C65.5853 91.7163 66.9505 88.1509 69.6808 85.3659C72.2816 82.7111 75.5709 81.3216 79.5427 81.1974H97.0777V72.6475H79.5427C73.2231 72.7894 67.9037 75.0362 63.5847 79.3999C59.1127 83.9055 56.8826 89.4162 56.8826 95.9203C56.8826 102.424 59.1362 107.864 63.6435 112.352C68.1509 116.84 73.835 119.081 80.696 119.081C87.1275 119.081 92.3821 117.1 96.4422 113.144C99.5491 110.123 101.461 106.386 102.197 101.951H93.7473V101.957Z" fill="#44A40C"/>
<path d="M89.5044 93.4977L78.4006 87.4405C77.104 86.7335 75.4773 87.6187 75.4773 89.0328V101.147C75.4773 102.567 77.104 103.452 78.4006 102.739L89.5044 96.6821C90.8011 95.9751 90.8011 94.2047 89.5044 93.4921V93.4977Z" fill="#44A40C"/>
<path d="M140.99 81.8138H136.105C130.46 81.8138 128.551 83.5438 128.551 88.3647V118.732H118.338V86.3291C118.338 75.7069 124.059 72.9966 136.676 72.9966H140.995V81.808L140.99 81.8138Z" fill="#44A40C"/>
<path d="M154.831 99.9637C155.546 103.351 157.175 105.95 159.734 107.76C162.288 109.576 165.409 110.479 169.092 110.479C174.199 110.479 178.035 108.64 180.588 104.952L188.521 109.588C184.123 116.062 177.62 119.302 169.006 119.302C161.754 119.302 155.904 117.089 151.449 112.663C146.995 108.237 144.765 102.636 144.765 95.8667C144.765 89.097 146.961 83.6438 151.359 79.1553C155.756 74.6724 161.397 72.4253 168.291 72.4253C174.828 72.4253 180.191 74.7121 184.379 79.2858C188.566 83.8594 190.66 89.4148 190.66 95.9518C190.66 96.9619 190.541 98.301 190.303 99.9637H154.831ZM154.746 92.1215H180.946C180.293 88.5012 178.789 85.7661 176.446 83.9218C174.096 82.0833 171.35 81.1584 168.201 81.1584C164.637 81.1584 161.664 82.14 159.286 84.0978C156.908 86.0611 155.393 88.7338 154.741 92.1158L154.746 92.1215Z" fill="#44A40C"/>
<path d="M217.958 119.307C211.42 119.307 205.865 117.049 201.291 112.531C196.716 108.014 194.429 102.458 194.429 95.8639C194.429 89.2696 196.716 83.7137 201.291 79.1964C205.865 74.6791 211.42 72.4204 217.958 72.4204C224.496 72.4204 230.125 74.6791 234.671 79.1964C239.217 83.7137 241.487 89.2696 241.487 95.8639C241.487 102.458 239.217 108.014 234.671 112.531C230.125 117.049 224.552 119.307 217.958 119.307ZM208.067 105.937C210.739 108.61 214.037 109.949 217.958 109.949C221.88 109.949 225.177 108.61 227.85 105.937C230.523 103.264 231.862 99.9046 231.862 95.8639C231.862 91.8233 230.523 88.4637 227.85 85.7908C225.177 83.1178 221.88 81.7785 217.958 81.7785C214.037 81.7785 210.739 83.1178 208.067 85.7908C205.394 88.4637 204.054 91.8233 204.054 95.8639C204.054 99.9046 205.394 103.264 208.067 105.937Z" fill="#44A40C"/>
<path d="M269.101 72.6084C274.296 72.6084 278.498 74.2708 281.702 77.5955C284.905 80.9203 286.504 85.4803 286.504 91.2871V119.12H276.715V92.2857C276.715 88.9032 275.808 86.2999 273.996 84.4875C272.183 82.675 269.701 81.7688 266.561 81.7688C263.115 81.7688 260.333 82.8424 258.221 84.9897C256.102 87.1369 255.046 90.4155 255.046 94.8254V119.12H245.256V73.7859H255.046V79.5869C258.007 74.9346 262.688 72.6084 269.095 72.6084H269.101Z" fill="#44A40C"/>
</g>
<g filter="url(#filter0_f_18511_12089)">
<path fill-rule="evenodd" clip-rule="evenodd" d="M349.218 30.7173C341.703 37.2883 330.312 29.5446 320.354 30.4447C308.007 31.5609 294.676 44.4385 285.105 36.5127C275.688 28.7136 283.504 13.3789 285.152 1.29248C286.476 -8.41462 287.694 -17.8641 293.585 -25.6753C300.644 -35.0351 308.996 -45.2747 320.723 -45.8744C332.799 -46.4919 344.339 -38.6543 351.125 -28.6179C357.067 -19.8315 353.359 -8.69602 353.019 1.8849C352.695 11.9611 356.794 24.0937 349.218 30.7173Z" fill="url(#paint0_linear_18511_12089)"/>
</g>
<g filter="url(#filter1_f_18511_12089)">
<path fill-rule="evenodd" clip-rule="evenodd" d="M327.404 9.43184C320.564 21.1322 304.995 26.5119 291.518 24.9926C278.853 23.5649 271.38 11.4576 262.679 2.13529C254.369 -6.76932 243.041 -14.8176 243.003 -26.9896C242.966 -39.2126 252.058 -50.0191 262.5 -56.3582C271.239 -61.6632 281.818 -57.5461 292.016 -56.7444C300.996 -56.0385 311.295 -58.485 317.582 -52.0281C323.855 -45.5874 320.145 -35.2769 321.563 -26.4035C323.549 -13.9796 333.749 -1.42113 327.404 9.43184Z" fill="url(#paint1_linear_18511_12089)"/>
</g>
<g filter="url(#filter2_f_18511_12089)">
<path fill-rule="evenodd" clip-rule="evenodd" d="M300.584 242.462C291.08 239.292 292.001 225.499 286.166 217.336C278.931 207.213 261.015 202.21 263.018 189.901C264.989 177.788 282.232 176.77 293.533 172.061C302.608 168.279 311.407 164.536 321.16 165.67C332.846 167.029 345.952 169.062 352.424 178.91C359.089 189.05 358.163 203.019 352.919 213.99C348.329 223.594 336.807 226.038 327.474 231.115C318.587 235.95 310.164 245.657 300.584 242.462Z" fill="url(#paint2_linear_18511_12089)"/>
</g>
<g filter="url(#filter3_f_18511_12089)">
<path fill-rule="evenodd" clip-rule="evenodd" d="M307.937 212.771C294.335 212.789 281.774 202.042 276.247 189.603C271.053 177.915 277.741 165.298 281.394 153.033C284.884 141.318 286.1 127.425 296.619 121.214C307.181 114.976 321.153 117.361 331.942 123.183C340.971 128.054 342.777 139.303 347.261 148.539C351.208 156.671 358.555 164.345 356.157 173.066C353.765 181.766 342.956 183.789 335.994 189.521C326.247 197.547 320.553 212.753 307.937 212.771Z" fill="url(#paint3_linear_18511_12089)"/>
</g>
<g filter="url(#filter4_f_18511_12089)">
<path fill-rule="evenodd" clip-rule="evenodd" d="M-2.77057 95.8619C6.40957 96.4767 8.86954 110.316 15.9825 116.822C24.8026 124.89 41.877 125.089 43.0257 137.752C44.1561 150.212 29.1083 155.771 20.2077 163.398C13.0592 169.523 6.14662 175.537 -2.77057 176.995C-13.4555 178.742 -25.5584 180.2 -33.6373 172.202C-41.956 163.966 -44.4534 149.951 -42.4109 137.752C-40.6229 127.072 -30.9868 121.62 -23.9179 114.15C-17.1863 107.036 -12.0243 95.2421 -2.77057 95.8619Z" fill="url(#paint4_linear_18511_12089)"/>
</g>
<g filter="url(#filter5_f_18511_12089)">
<path fill-rule="evenodd" clip-rule="evenodd" d="M-2.23603 127.072C9.8198 123.461 23.5109 130.737 31.3668 141.539C38.7489 151.689 35.8168 165.892 35.4913 178.948C35.1804 191.418 37.4026 205.434 29.5518 214.336C21.6681 223.274 8.7134 224.613 -2.23603 221.725C-11.3994 219.307 -15.6735 208.696 -21.8433 200.776C-27.2758 193.802 -35.6126 188.178 -35.5588 178.948C-35.5052 169.74 -26.4016 164.891 -21.5905 157.401C-14.8544 146.915 -13.4187 130.421 -2.23603 127.072Z" fill="url(#paint5_linear_18511_12089)"/>
</g>
</g>
</g>
<defs>
<filter id="filter0_f_18511_12089" x="247.143" y="-79.3087" width="140.73" height="151.785" filterUnits="userSpaceOnUse" color-interpolation-filters="sRGB">
<feFlood flood-opacity="0" result="BackgroundImageFix"/>
<feBlend mode="normal" in="SourceGraphic" in2="BackgroundImageFix" result="shape"/>
<feGaussianBlur stdDeviation="16.7" result="effect1_foregroundBlur_18511_12089"/>
</filter>
<filter id="filter1_f_18511_12089" x="209.603" y="-92.4235" width="153.254" height="151.068" filterUnits="userSpaceOnUse" color-interpolation-filters="sRGB">
<feFlood flood-opacity="0" result="BackgroundImageFix"/>
<feBlend mode="normal" in="SourceGraphic" in2="BackgroundImageFix" result="shape"/>
<feGaussianBlur stdDeviation="16.7" result="effect1_foregroundBlur_18511_12089"/>
</filter>
<filter id="filter2_f_18511_12089" x="229.463" y="132.064" width="161.076" height="144.43" filterUnits="userSpaceOnUse" color-interpolation-filters="sRGB">
<feFlood flood-opacity="0" result="BackgroundImageFix"/>
<feBlend mode="normal" in="SourceGraphic" in2="BackgroundImageFix" result="shape"/>
<feGaussianBlur stdDeviation="16.7" result="effect1_foregroundBlur_18511_12089"/>
</filter>
<filter id="filter3_f_18511_12089" x="240.943" y="84.1322" width="149.085" height="162.039" filterUnits="userSpaceOnUse" color-interpolation-filters="sRGB">
<feFlood flood-opacity="0" result="BackgroundImageFix"/>
<feBlend mode="normal" in="SourceGraphic" in2="BackgroundImageFix" result="shape"/>
<feGaussianBlur stdDeviation="16.7" result="effect1_foregroundBlur_18511_12089"/>
</filter>
<filter id="filter4_f_18511_12089" x="-76.4862" y="62.4383" width="152.972" height="149.328" filterUnits="userSpaceOnUse" color-interpolation-filters="sRGB">
<feFlood flood-opacity="0" result="BackgroundImageFix"/>
<feBlend mode="normal" in="SourceGraphic" in2="BackgroundImageFix" result="shape"/>
<feGaussianBlur stdDeviation="16.7" result="effect1_foregroundBlur_18511_12089"/>
</filter>
<filter id="filter5_f_18511_12089" x="-68.9591" y="92.7367" width="138.697" height="163.756" filterUnits="userSpaceOnUse" color-interpolation-filters="sRGB">
<feFlood flood-opacity="0" result="BackgroundImageFix"/>
<feBlend mode="normal" in="SourceGraphic" in2="BackgroundImageFix" result="shape"/>
<feGaussianBlur stdDeviation="16.7" result="effect1_foregroundBlur_18511_12089"/>
</filter>
<linearGradient id="paint0_linear_18511_12089" x1="347.093" y1="32.8457" x2="328.099" y2="-52.9259" gradientUnits="userSpaceOnUse">
<stop stop-color="#44A40C"/>
<stop offset="1" stop-color="#256428"/>
</linearGradient>
<linearGradient id="paint1_linear_18511_12089" x1="350.316" y1="-18.8482" x2="235.235" y2="-24.3763" gradientUnits="userSpaceOnUse">
<stop stop-color="#2E7D32"/>
<stop offset="1" stop-color="#44A40C"/>
</linearGradient>
<linearGradient id="paint2_linear_18511_12089" x1="297.663" y1="241.703" x2="362.273" y2="181.715" gradientUnits="userSpaceOnUse">
<stop stop-color="#44A40C"/>
<stop offset="1" stop-color="#256428"/>
</linearGradient>
<linearGradient id="paint3_linear_18511_12089" x1="344.051" y1="218.249" x2="290.412" y2="115.815" gradientUnits="userSpaceOnUse">
<stop stop-color="#2E7D32"/>
<stop offset="1" stop-color="#44A40C"/>
</linearGradient>
<linearGradient id="paint4_linear_18511_12089" x1="-0.00011207" y1="95.8384" x2="-49.8646" y2="167.272" gradientUnits="userSpaceOnUse">
<stop stop-color="#44A40C"/>
<stop offset="1" stop-color="#256428"/>
</linearGradient>
<linearGradient id="paint5_linear_18511_12089" x1="-35.5591" y1="131.211" x2="44.622" y2="209.538" gradientUnits="userSpaceOnUse">
<stop stop-color="#2E7D32"/>
<stop offset="1" stop-color="#44A40C"/>
</linearGradient>
<clipPath id="clip0_18511_12089">
<path d="M0 8C0 3.58173 3.58172 0 8 0H335C339.418 0 343 3.58172 343 8V183C343 187.418 339.418 191 335 191H7.99999C3.58172 191 0 187.418 0 183V8Z" fill="white"/>
</clipPath>
<clipPath id="clip1_18511_12089">
<rect width="229.621" height="46.8871" fill="white" transform="translate(56.8826 72.4204)"/>
</clipPath>
</defs>
</svg>
